Coordinates
version=1
nRows=35
nColumns=18
inDegrees=yes

Units are S.I. units (second, meters, Newtons, ...)
If the header above contains a line with 'inDegrees', this indicates whether rotational values are in degrees (yes) or radians (no).

endheader
time	TH_x	TH_y	TH_z	TH_transx	TH_transy	TH_transz	SC_y	SC_z	SC_x	AC_y	AC_z	AC_x	GH_y	GH_z	GH_yy	EL_x	PS_y
   8501.00000000	      3.71363739	     76.61751038	    -15.40361809	     -0.04769656	      0.21408217	      1.46523652	    -36.48340046	     12.47943406	     11.57723094	     44.21485669	     -8.01208764	     10.59896849	    -11.37939027	     -4.81169524	     -8.36970935	      3.35915515	    160.02711218
   8535.00000000	     14.82441202	     77.10243839	    -26.74727085	     -0.04159134	      0.23163749	      1.47243541	    -34.18215515	      9.54445463	     11.11093408	     51.26565462	     -7.20961156	      7.15755436	    -11.90247272	     -0.41571378	     -8.96590233	      3.23042074	    160.02711218
   8568.00000000	      6.65142221	     74.99771323	    -18.67835079	     -0.04701405	      0.22014327	      1.46345022	    -37.85627116	     10.18976053	     12.04104595	     46.64259724	     -6.64675103	      9.05887968	     -9.73719322	     -3.37308041	     -6.82369999	      3.34178782	    160.02711218
   8601.00000000	      6.29332939	     74.43602654	    -19.07093685	     -0.04492498	      0.22629142	      1.46245883	    -38.30959682	      8.96191353	     12.59100322	     46.61278678	     -5.94617859	      8.77622355	     -9.73086250	     -2.66688244	     -6.79920253	      3.38494631	    160.02711218
   8635.00000000	      6.17014683	     73.25585947	    -19.13109308	     -0.04641047	      0.22389749	      1.45944284	    -38.75337326	     10.18303827	     12.64221156	     46.56750798	     -6.40377614	      9.79907163	     -9.51144548	     -3.36119124	     -6.55824141	      4.30933135	    160.02711218
   8668.00000000	      2.46106090	     72.18699088	    -15.08417423	     -0.04554293	      0.22077414	      1.45690280	    -36.65369337	      9.35052565	     24.49132391	     63.98800855	     -1.05422202	     14.78216892	     42.81170625	    -14.68684546	     46.37773907	      5.32228263	    160.02711218
   8701.00000000	      3.13720554	     70.82827086	    -15.17706865	     -0.04411394	      0.22388958	      1.45487218	    -36.29110345	      7.80929115	     24.73406536	     63.61144092	     -0.85586159	     14.30298979	     42.64494579	    -14.45684345	     46.19268121	      7.29844693	    160.02711218
   8735.00000000	      7.13973379	     75.61894200	    -18.93411994	     -0.04738271	      0.22264240	      1.46219266	    -41.78097613	      9.17723913	     24.32936964	     53.65010593	      0.48883021	     10.16857392	     30.99775328	    -14.99498572	     32.94274461	     13.58601340	    160.02711218
   8768.00000000	      6.70181956	     75.49088090	    -19.59862871	     -0.04590479	      0.22285596	      1.46314092	    -41.41322154	      9.18741711	     24.91707421	     53.54836263	      1.14181756	     10.15976719	     31.03433940	    -14.39950677	     32.90951395	     14.33832807	    160.02711218
   8801.00000000	      4.40157782	     72.44884975	    -20.14226576	     -0.04769080	      0.21711380	      1.44839999	    -40.33631175	     12.83719157	     25.56718832	     56.51070605	     -0.21202585	     14.76796449	     35.55240079	    -14.95684893	     38.53768147	     12.99078784	    160.02711218
   8835.00000000	      0.62654571	     75.05972983	    -17.01035408	     -0.04929552	      0.21745055	      1.45512858	    -42.76207554	     11.91008674	     26.05101169	     52.16071006	      1.22974404	     12.91223334	     32.32868870	    -13.97470957	     34.80880416	     17.23059498	    160.02711218
   8868.00000000	     -0.19774984	     74.08980843	    -16.93840062	     -0.04819363	      0.21735317	      1.45201435	    -43.92621737	     11.44380058	     26.30124086	     50.70317360	      1.80110895	     12.43739487	     31.17096914	    -13.43904999	     33.52309585	     19.94140267	    160.02711218
   8901.00000000	     -0.15039810	     74.80812428	    -16.35999914	     -0.04588891	      0.21723922	      1.45517435	    -43.55578292	     10.79487421	     26.28472728	     49.82041151	      1.20740374	     13.15721453	     30.30385871	    -13.49713854	     32.86407777	     19.43145729	    160.02711218
   8935.00000000	     -0.86975821	     75.43448252	    -15.65437322	     -0.04676087	      0.21641431	      1.45757747	    -43.90776130	     10.47833090	     26.29228816	     48.71581172	      1.55526772	     12.58081766	     29.39640975	    -13.23561674	     31.82892071	     22.70545094	    160.02711218
   8968.00000000	     -2.19274327	     77.33801750	    -14.30791744	     -0.04506867	      0.21672265	      1.46362096	    -44.73711677	     10.57381364	     26.22940482	     46.57660394	      2.47079150	     11.13064652	     27.42701946	    -12.68683650	     29.46926765	     27.12442192	    160.02711218
   9001.00000000	     -1.62045363	     79.51159889	    -15.09075783	     -0.04631035	      0.21775737	      1.46683796	    -45.15410074	     10.46435474	     25.18422423	     44.07490241	      3.28660160	      8.16461565	     23.57837071	    -12.34480311	     24.82161391	     34.61298013	    160.02711218
   9035.00000000	     -0.91088777	     80.60383863	    -15.98634319	     -0.04686614	      0.21735586	      1.46820626	    -45.77229558	     10.75822300	     24.91836283	     44.87382167	      3.77263054	      7.27305985	     23.07988591	    -11.91198817	     23.95879850	     39.53442098	    160.02711218
   9068.00000000	     -0.86701091	     84.07112327	    -16.68117610	     -0.04587876	      0.21978049	      1.47672692	    -45.42106779	     10.16964187	     24.64399213	     45.79488291	      4.87040155	      5.25209929	     22.36501223	    -11.10181965	     22.64572346	     45.60191897	    160.02711218
   9101.00000000	     -0.94718561	     83.81968695	    -16.94998056	     -0.04616827	      0.22018152	      1.47678920	    -45.12836111	      9.70658532	     24.77926047	     45.75395402	      5.46207784	      4.56184892	     22.32076345	    -10.66244785	     22.47608238	     49.58507877	    159.93242547
   9135.00000000	     -1.06242807	     82.50753590	    -17.56366267	     -0.03688154	      0.22055798	      1.48357343	    -41.87059952	      8.39284931	     25.04838382	     43.58666824	      5.25893089	      4.54002616	     21.13209867	    -10.91094610	     21.42942120	     53.27076153	    159.77990362
   9168.00000000	     -0.65387837	     84.36411335	    -16.74537762	     -0.04175037	      0.21788505	      1.48227962	    -42.16439784	      7.80341900	     24.07373703	     43.50481751	      4.58821284	      3.71800118	     20.67494635	    -11.67581713	     20.82962753	     57.74798772	    159.72659132
   9201.00000000	     -0.44620707	     84.61591436	    -16.79454246	     -0.03978865	      0.21857172	      1.48184353	    -42.25221384	      7.11869390	     24.18400262	     43.65890870	      4.75980303	      3.56549914	     20.45013053	    -11.38029541	     20.55796517	     60.03292058	    159.69587581
   9235.00000000	     -0.19096826	     86.21139735	    -16.42348745	     -0.04199473	      0.21705844	      1.48361246	    -41.59939980	      7.20684599	     23.57588568	     43.95373429	      4.66207685	      2.69648491	     20.61305195	    -11.70872719	     20.54497405	     65.06154447	    159.43311705
   9268.00000000	      0.02869710	     84.84794711	    -16.38101500	     -0.04474741	      0.21592751	      1.47932132	    -43.61282454	      7.85063849	     23.43438443	     41.05774861	      4.62386066	      2.58717872	     17.39922081	    -11.72481342	     17.21501577	     66.97628885	    159.51369549
   9301.00000000	     -0.00166754	     86.03989383	    -16.68640611	     -0.04264635	      0.21547317	      1.48426408	    -43.36524556	      7.80673145	     23.10378274	     40.54521959	      5.05435361	      1.54031200	     16.11174281	    -11.31638900	     15.60556368	     76.33347373	    159.02491499
   9335.00000000	      0.02515840	     85.35054563	    -16.96174973	     -0.04190934	      0.21644169	      1.48671233	    -42.49173368	      8.09004872	     22.64771540	     40.17374768	      5.56003160	      0.25422300	     15.94292679	    -11.18194121	     15.18721800	     82.09375098	    158.66316377
   9368.00000000	      0.12318139	     85.72706974	    -16.87049705	     -0.04239766	      0.21771087	      1.48766782	    -42.70554221	      7.56303875	     22.31602859	     39.56079571	      5.58663452	     -0.39190091	     15.09815845	    -11.18545701	     14.21214364	     87.06663933	    158.36454491
   9401.00000000	      0.12137288	     85.75156547	    -16.88278269	     -0.04229631	      0.21787746	      1.48742680	    -42.67152957	      7.51212714	     22.38193586	     39.55495902	      5.57145081	     -0.29149297	     15.07342167	    -11.17303488	     14.20502272	     87.09942162	    158.36423513
   9435.00000000	      0.26022189	     85.06574196	    -16.91221066	     -0.04190899	      0.21572780	      1.48697564	    -43.05039788	      7.74114302	     22.62096628	     39.40530339	      5.32162999	      0.38304736	     14.84552456	    -11.30012020	     14.07968147	     89.18174115	    158.24161712
   9468.00000000	      0.62808353	     85.16228135	    -16.98134784	     -0.04279414	      0.21731913	      1.48590371	    -42.33796657	      7.03249334	     22.28381650	     39.75337638	      5.21861236	     -0.16553054	     14.93189328	    -11.37884461	     14.05823288	     93.93051200	    157.94340586
   9501.00000000	      0.64218147	     85.03094176	    -17.42473000	     -0.04323773	      0.21822517	      1.48589089	    -42.63176715	      6.62687654	     22.89320845	     40.44350484	      5.34251009	      0.60711577	     14.99955202	    -10.84849723	     14.21416700	     95.72841449	    157.91504866
   9535.00000000	      0.64218147	     85.03094176	    -17.42473000	     -0.04323773	      0.21822517	      1.48589089	    -42.63176715	      6.62687654	     22.89320845	     40.44350484	      5.34251009	      0.60711577	     14.99955202	    -10.84849723	     14.21416700	     95.72841449	    157.91504866
   9568.00000000	      0.86091065	     88.82061799	    -17.26998823	     -0.04345851	      0.21764275	      1.48929043	    -44.07569514	      6.81919406	     22.13677817	     40.81175788	      5.27462124	     -0.25837248	     13.29254628	    -10.37608238	     12.08648957	    102.02835936	    157.61027666
   9601.00000000	      0.98189937	     90.16748065	    -17.15707376	     -0.04055516	      0.21938736	      1.49325071	    -43.78585290	      6.58095978	     22.41477814	     40.98113952	      5.35165049	      0.01628347	     12.88006213	    -10.04608742	     11.65496694	    107.54482832	    157.35733504
   9635.00000000	      1.44938391	     92.76027655	    -16.68809611	     -0.03987939	      0.21798630	      1.49617101	    -44.20824756	      6.95488198	     22.15560646	     41.08432982	      5.02180699	      0.11871014	     12.02508452	    -10.04660854	     10.69274777	    109.27329660	    157.40649759
